<svg width="91" height="91" viewBox="0 0 91 91" fill="none" xmlns="http://www.w3.org/2000/svg">
<path d="M0 37.8582C0 58.7436 16.9915 75.7164 37.8582 75.7164C47.4718 75.7164 56.2657 72.102 62.9542 66.1774L87.0814 90.3045C87.5285 90.7517 88.1061 90.9752 88.7023 90.9752C89.2984 90.9752 89.876 90.7517 90.3232 90.3045C91.2174 89.4102 91.2174 87.9756 90.3232 87.0814L66.1774 62.9542C72.102 56.2657 75.7164 47.4905 75.7164 37.8582C75.7164 16.9729 58.725 0 37.8582 0C16.9915 0 0 16.9729 0 37.8582ZM71.1518 37.8582C71.1518 56.2098 56.2098 71.1518 37.8582 71.1518C19.5067 71.1518 4.5646 56.2098 4.5646 37.8582C4.5646 19.5067 19.5067 4.5646 37.8582 4.5646C56.2098 4.5646 71.1518 19.488 71.1518 37.8582Z" fill="#DD0000"/>
</svg>